<mxfile host="app.diagrams.net" agent="Mozilla/5.0 (Windows NT 10.0; Win64; x64) AppleWebKit/537.36 (KHTML, like Gecko) Chrome/138.0.0.0 Safari/537.36" version="28.0.6">
  <diagram name="Page-1" id="srzabb6JrwGZ0LaROR4p">
    <mxGraphModel grid="1" page="0" gridSize="10" guides="1" tooltips="1" connect="1" arrows="1" fold="1" pageScale="1" pageWidth="1169" pageHeight="827" math="0" shadow="0">
      <root>
        <mxCell id="0" />
        <mxCell id="1" parent="0" />
        <mxCell id="8yzNOGZebGLm4kdmdn6U-31" value="" style="shape=folder;tabWidth=80;tabHeight=20;tabPosition=left;html=1;whiteSpace=wrap;align=center;" vertex="1" parent="1">
          <mxGeometry x="1800" y="310" width="2200" height="1360" as="geometry" />
        </mxCell>
        <mxCell id="pgveOLl8lyszOGQv-lTQ-9" value="&amp;lt;&amp;lt;profile&amp;gt;&amp;gt;PlataformaEventos" style="shape=umlFrame;whiteSpace=wrap;html=1;pointerEvents=0;recursiveResize=0;container=1;collapsible=0;width=160;" vertex="1" parent="1">
          <mxGeometry x="2530" y="390" width="1395" height="1245" as="geometry" />
        </mxCell>
        <mxCell id="pgveOLl8lyszOGQv-lTQ-10" value="&amp;lt;&amp;lt;stereotype&amp;gt;&amp;gt;&lt;br&gt;Solicitud" style="shape=rect;html=1;whiteSpace=wrap;align=center;" vertex="1" parent="pgveOLl8lyszOGQv-lTQ-9">
          <mxGeometry x="140" y="130" width="110" height="60" as="geometry" />
        </mxCell>
        <mxCell id="pgveOLl8lyszOGQv-lTQ-11" value="&amp;lt;&amp;lt;stereotype&amp;gt;&amp;gt;&lt;br&gt;Evento" style="shape=rect;html=1;whiteSpace=wrap;align=center;" vertex="1" parent="pgveOLl8lyszOGQv-lTQ-9">
          <mxGeometry x="140" y="210" width="110" height="60" as="geometry" />
        </mxCell>
        <mxCell id="pgveOLl8lyszOGQv-lTQ-12" value="&amp;lt;&amp;lt;stereotype&amp;gt;&amp;gt;&lt;br&gt;Contrato" style="shape=rect;html=1;whiteSpace=wrap;align=center;" vertex="1" parent="pgveOLl8lyszOGQv-lTQ-9">
          <mxGeometry x="140" y="290" width="110" height="60" as="geometry" />
        </mxCell>
        <mxCell id="pgveOLl8lyszOGQv-lTQ-13" value="&amp;lt;&amp;lt;stereotype&amp;gt;&amp;gt;&lt;br&gt;Galería" style="shape=rect;html=1;whiteSpace=wrap;align=center;" vertex="1" parent="pgveOLl8lyszOGQv-lTQ-9">
          <mxGeometry x="140" y="410" width="110" height="60" as="geometry" />
        </mxCell>
        <mxCell id="pgveOLl8lyszOGQv-lTQ-14" value="&amp;lt;&amp;lt;stereotype&amp;gt;&amp;gt;&lt;br&gt;ArchivoMultimedía" style="shape=rect;html=1;whiteSpace=wrap;align=center;" vertex="1" parent="pgveOLl8lyszOGQv-lTQ-9">
          <mxGeometry x="140" y="480" width="110" height="60" as="geometry" />
        </mxCell>
        <mxCell id="pgveOLl8lyszOGQv-lTQ-16" value="&amp;lt;&amp;lt;stereotype&amp;gt;&amp;gt;&lt;br&gt;Cita" style="shape=rect;html=1;whiteSpace=wrap;align=center;" vertex="1" parent="pgveOLl8lyszOGQv-lTQ-9">
          <mxGeometry x="145" y="610" width="110" height="60" as="geometry" />
        </mxCell>
        <mxCell id="pgveOLl8lyszOGQv-lTQ-17" value="&amp;lt;&amp;lt;stereotype&amp;gt;&amp;gt;&lt;br&gt;Pregunta" style="shape=rect;html=1;whiteSpace=wrap;align=center;" vertex="1" parent="pgveOLl8lyszOGQv-lTQ-9">
          <mxGeometry x="140" y="780" width="110" height="60" as="geometry" />
        </mxCell>
        <mxCell id="pgveOLl8lyszOGQv-lTQ-18" value="&amp;lt;&amp;lt;stereotype&amp;gt;&amp;gt;&lt;br&gt;Respuesta" style="shape=rect;html=1;whiteSpace=wrap;align=center;" vertex="1" parent="pgveOLl8lyszOGQv-lTQ-9">
          <mxGeometry x="140" y="690" width="110" height="60" as="geometry" />
        </mxCell>
        <mxCell id="pgveOLl8lyszOGQv-lTQ-21" value="&amp;lt;&amp;lt;stereotype&amp;gt;&amp;gt;&lt;br&gt;Comentario" style="shape=rect;html=1;whiteSpace=wrap;align=center;" vertex="1" parent="pgveOLl8lyszOGQv-lTQ-9">
          <mxGeometry x="140" y="880" width="110" height="60" as="geometry" />
        </mxCell>
        <mxCell id="pgveOLl8lyszOGQv-lTQ-22" style="rounded=0;orthogonalLoop=1;jettySize=auto;html=1;exitX=0;exitY=0.5;exitDx=0;exitDy=0;entryX=1;entryY=0.5;entryDx=0;entryDy=0;dashed=1;" edge="1" parent="pgveOLl8lyszOGQv-lTQ-9" source="pgveOLl8lyszOGQv-lTQ-33" target="pgveOLl8lyszOGQv-lTQ-34">
          <mxGeometry relative="1" as="geometry" />
        </mxCell>
        <mxCell id="pgveOLl8lyszOGQv-lTQ-23" style="rounded=0;orthogonalLoop=1;jettySize=auto;html=1;exitX=0;exitY=0.5;exitDx=0;exitDy=0;entryX=1;entryY=0.5;entryDx=0;entryDy=0;dashed=1;" edge="1" parent="pgveOLl8lyszOGQv-lTQ-9" source="pgveOLl8lyszOGQv-lTQ-33" target="pgveOLl8lyszOGQv-lTQ-10">
          <mxGeometry relative="1" as="geometry" />
        </mxCell>
        <mxCell id="8yzNOGZebGLm4kdmdn6U-27" value="&lt;span style=&quot;font-size: 12px; background-color: rgb(236, 236, 236);&quot;&gt;&amp;lt;&amp;lt;apply&amp;gt;&amp;gt;&lt;/span&gt;" style="edgeLabel;html=1;align=center;verticalAlign=middle;resizable=0;points=[];" connectable="0" vertex="1" parent="pgveOLl8lyszOGQv-lTQ-23">
          <mxGeometry x="0.3154" y="-1" relative="1" as="geometry">
            <mxPoint y="-1" as="offset" />
          </mxGeometry>
        </mxCell>
        <mxCell id="pgveOLl8lyszOGQv-lTQ-24" style="rounded=0;orthogonalLoop=1;jettySize=auto;html=1;exitX=0;exitY=0.5;exitDx=0;exitDy=0;entryX=1;entryY=0.5;entryDx=0;entryDy=0;dashed=1;" edge="1" parent="pgveOLl8lyszOGQv-lTQ-9" source="pgveOLl8lyszOGQv-lTQ-33" target="pgveOLl8lyszOGQv-lTQ-11">
          <mxGeometry relative="1" as="geometry" />
        </mxCell>
        <mxCell id="pgveOLl8lyszOGQv-lTQ-25" style="rounded=0;orthogonalLoop=1;jettySize=auto;html=1;exitX=0;exitY=0.5;exitDx=0;exitDy=0;entryX=1;entryY=0.5;entryDx=0;entryDy=0;dashed=1;" edge="1" parent="pgveOLl8lyszOGQv-lTQ-9" source="pgveOLl8lyszOGQv-lTQ-33" target="pgveOLl8lyszOGQv-lTQ-12">
          <mxGeometry relative="1" as="geometry" />
        </mxCell>
        <mxCell id="pgveOLl8lyszOGQv-lTQ-26" style="rounded=0;orthogonalLoop=1;jettySize=auto;html=1;exitX=0;exitY=0.5;exitDx=0;exitDy=0;entryX=1;entryY=0.5;entryDx=0;entryDy=0;dashed=1;" edge="1" parent="pgveOLl8lyszOGQv-lTQ-9" source="pgveOLl8lyszOGQv-lTQ-33" target="pgveOLl8lyszOGQv-lTQ-13">
          <mxGeometry relative="1" as="geometry" />
        </mxCell>
        <mxCell id="8yzNOGZebGLm4kdmdn6U-20" value="&lt;span style=&quot;font-size: 12px; background-color: rgb(236, 236, 236);&quot;&gt;&amp;lt;&amp;lt;apply&amp;gt;&amp;gt;&lt;/span&gt;" style="edgeLabel;html=1;align=center;verticalAlign=middle;resizable=0;points=[];" connectable="0" vertex="1" parent="pgveOLl8lyszOGQv-lTQ-26">
          <mxGeometry x="0.4271" y="-3" relative="1" as="geometry">
            <mxPoint as="offset" />
          </mxGeometry>
        </mxCell>
        <mxCell id="pgveOLl8lyszOGQv-lTQ-27" style="rounded=0;orthogonalLoop=1;jettySize=auto;html=1;exitX=0;exitY=0.5;exitDx=0;exitDy=0;entryX=1;entryY=0.5;entryDx=0;entryDy=0;dashed=1;" edge="1" parent="pgveOLl8lyszOGQv-lTQ-9" source="pgveOLl8lyszOGQv-lTQ-33" target="pgveOLl8lyszOGQv-lTQ-14">
          <mxGeometry relative="1" as="geometry" />
        </mxCell>
        <mxCell id="8yzNOGZebGLm4kdmdn6U-21" value="&lt;span style=&quot;font-size: 12px; background-color: rgb(236, 236, 236);&quot;&gt;&amp;lt;&amp;lt;apply&amp;gt;&amp;gt;&lt;/span&gt;" style="edgeLabel;html=1;align=center;verticalAlign=middle;resizable=0;points=[];" connectable="0" vertex="1" parent="pgveOLl8lyszOGQv-lTQ-27">
          <mxGeometry x="0.5348" y="-6" relative="1" as="geometry">
            <mxPoint x="1" as="offset" />
          </mxGeometry>
        </mxCell>
        <mxCell id="pgveOLl8lyszOGQv-lTQ-28" style="rounded=0;orthogonalLoop=1;jettySize=auto;html=1;exitX=0;exitY=0.5;exitDx=0;exitDy=0;entryX=1;entryY=0.5;entryDx=0;entryDy=0;dashed=1;" edge="1" parent="pgveOLl8lyszOGQv-lTQ-9" source="pgveOLl8lyszOGQv-lTQ-33" target="pgveOLl8lyszOGQv-lTQ-16">
          <mxGeometry relative="1" as="geometry" />
        </mxCell>
        <mxCell id="8yzNOGZebGLm4kdmdn6U-22" value="&lt;span style=&quot;font-size: 12px; background-color: rgb(236, 236, 236);&quot;&gt;&amp;lt;&amp;lt;apply&amp;gt;&amp;gt;&lt;/span&gt;" style="edgeLabel;html=1;align=center;verticalAlign=middle;resizable=0;points=[];" connectable="0" vertex="1" parent="pgveOLl8lyszOGQv-lTQ-28">
          <mxGeometry x="0.4747" y="5" relative="1" as="geometry">
            <mxPoint x="1" as="offset" />
          </mxGeometry>
        </mxCell>
        <mxCell id="pgveOLl8lyszOGQv-lTQ-29" style="rounded=0;orthogonalLoop=1;jettySize=auto;html=1;exitX=0;exitY=0.5;exitDx=0;exitDy=0;entryX=1;entryY=0.5;entryDx=0;entryDy=0;dashed=1;" edge="1" parent="pgveOLl8lyszOGQv-lTQ-9" source="pgveOLl8lyszOGQv-lTQ-33" target="pgveOLl8lyszOGQv-lTQ-18">
          <mxGeometry relative="1" as="geometry" />
        </mxCell>
        <mxCell id="8yzNOGZebGLm4kdmdn6U-23" value="&lt;span style=&quot;font-size: 12px; background-color: rgb(236, 236, 236);&quot;&gt;&amp;lt;&amp;lt;apply&amp;gt;&amp;gt;&lt;/span&gt;" style="edgeLabel;html=1;align=center;verticalAlign=middle;resizable=0;points=[];" connectable="0" vertex="1" parent="pgveOLl8lyszOGQv-lTQ-29">
          <mxGeometry x="0.5373" y="-1" relative="1" as="geometry">
            <mxPoint x="-1" as="offset" />
          </mxGeometry>
        </mxCell>
        <mxCell id="pgveOLl8lyszOGQv-lTQ-30" style="rounded=0;orthogonalLoop=1;jettySize=auto;html=1;exitX=0;exitY=0.5;exitDx=0;exitDy=0;entryX=1;entryY=0.5;entryDx=0;entryDy=0;dashed=1;" edge="1" parent="pgveOLl8lyszOGQv-lTQ-9" source="pgveOLl8lyszOGQv-lTQ-33" target="pgveOLl8lyszOGQv-lTQ-17">
          <mxGeometry relative="1" as="geometry" />
        </mxCell>
        <mxCell id="8yzNOGZebGLm4kdmdn6U-24" value="&lt;span style=&quot;font-size: 12px; background-color: rgb(236, 236, 236);&quot;&gt;&amp;lt;&amp;lt;apply&amp;gt;&amp;gt;&lt;/span&gt;" style="edgeLabel;html=1;align=center;verticalAlign=middle;resizable=0;points=[];" connectable="0" vertex="1" parent="pgveOLl8lyszOGQv-lTQ-30">
          <mxGeometry x="0.4972" y="3" relative="1" as="geometry">
            <mxPoint y="1" as="offset" />
          </mxGeometry>
        </mxCell>
        <mxCell id="pgveOLl8lyszOGQv-lTQ-32" style="rounded=0;orthogonalLoop=1;jettySize=auto;html=1;exitX=0;exitY=0.5;exitDx=0;exitDy=0;entryX=1;entryY=0.75;entryDx=0;entryDy=0;dashed=1;" edge="1" parent="pgveOLl8lyszOGQv-lTQ-9" source="pgveOLl8lyszOGQv-lTQ-33" target="pgveOLl8lyszOGQv-lTQ-21">
          <mxGeometry relative="1" as="geometry" />
        </mxCell>
        <mxCell id="8yzNOGZebGLm4kdmdn6U-26" value="&lt;span style=&quot;font-size: 12px; background-color: rgb(236, 236, 236);&quot;&gt;&amp;lt;&amp;lt;apply&amp;gt;&amp;gt;&lt;/span&gt;" style="edgeLabel;html=1;align=center;verticalAlign=middle;resizable=0;points=[];" connectable="0" vertex="1" parent="pgveOLl8lyszOGQv-lTQ-32">
          <mxGeometry x="0.2493" y="-7" relative="1" as="geometry">
            <mxPoint x="1" y="-1" as="offset" />
          </mxGeometry>
        </mxCell>
        <mxCell id="8yzNOGZebGLm4kdmdn6U-2" style="rounded=0;orthogonalLoop=1;jettySize=auto;html=1;exitX=1;exitY=0.5;exitDx=0;exitDy=0;entryX=0;entryY=0.5;entryDx=0;entryDy=0;dashed=1;" edge="1" parent="pgveOLl8lyszOGQv-lTQ-9" source="pgveOLl8lyszOGQv-lTQ-33" target="pgveOLl8lyszOGQv-lTQ-35">
          <mxGeometry relative="1" as="geometry" />
        </mxCell>
        <mxCell id="8yzNOGZebGLm4kdmdn6U-16" value="&lt;span style=&quot;font-size: 12px; background-color: rgb(236, 236, 236);&quot;&gt;&amp;lt;&amp;lt;apply&amp;gt;&amp;gt;&lt;/span&gt;" style="edgeLabel;html=1;align=center;verticalAlign=middle;resizable=0;points=[];" connectable="0" vertex="1" parent="8yzNOGZebGLm4kdmdn6U-2">
          <mxGeometry x="0.0167" y="6" relative="1" as="geometry">
            <mxPoint as="offset" />
          </mxGeometry>
        </mxCell>
        <mxCell id="8yzNOGZebGLm4kdmdn6U-3" style="rounded=0;orthogonalLoop=1;jettySize=auto;html=1;exitX=1;exitY=0.5;exitDx=0;exitDy=0;entryX=0;entryY=0.5;entryDx=0;entryDy=0;dashed=1;" edge="1" parent="pgveOLl8lyszOGQv-lTQ-9" source="pgveOLl8lyszOGQv-lTQ-33" target="pgveOLl8lyszOGQv-lTQ-38">
          <mxGeometry relative="1" as="geometry" />
        </mxCell>
        <mxCell id="8yzNOGZebGLm4kdmdn6U-17" value="&lt;span style=&quot;font-size: 12px; background-color: rgb(236, 236, 236);&quot;&gt;&amp;lt;&amp;lt;apply&amp;gt;&amp;gt;&lt;/span&gt;" style="edgeLabel;html=1;align=center;verticalAlign=middle;resizable=0;points=[];" connectable="0" vertex="1" parent="8yzNOGZebGLm4kdmdn6U-3">
          <mxGeometry x="0.1061" y="7" relative="1" as="geometry">
            <mxPoint as="offset" />
          </mxGeometry>
        </mxCell>
        <mxCell id="8yzNOGZebGLm4kdmdn6U-4" style="rounded=0;orthogonalLoop=1;jettySize=auto;html=1;exitX=1;exitY=0.5;exitDx=0;exitDy=0;entryX=0;entryY=0.5;entryDx=0;entryDy=0;" edge="1" parent="pgveOLl8lyszOGQv-lTQ-9" source="pgveOLl8lyszOGQv-lTQ-33" target="pgveOLl8lyszOGQv-lTQ-6">
          <mxGeometry relative="1" as="geometry" />
        </mxCell>
        <mxCell id="8yzNOGZebGLm4kdmdn6U-19" value="&lt;span style=&quot;font-size: 12px; background-color: rgb(236, 236, 236);&quot;&gt;&amp;lt;&amp;lt;apply&amp;gt;&amp;gt;&lt;/span&gt;" style="edgeLabel;html=1;align=center;verticalAlign=middle;resizable=0;points=[];" connectable="0" vertex="1" parent="8yzNOGZebGLm4kdmdn6U-4">
          <mxGeometry x="0.1817" y="3" relative="1" as="geometry">
            <mxPoint as="offset" />
          </mxGeometry>
        </mxCell>
        <mxCell id="8yzNOGZebGLm4kdmdn6U-5" style="rounded=0;orthogonalLoop=1;jettySize=auto;html=1;exitX=1;exitY=0.5;exitDx=0;exitDy=0;entryX=0;entryY=0.5;entryDx=0;entryDy=0;dashed=1;" edge="1" parent="pgveOLl8lyszOGQv-lTQ-9" source="pgveOLl8lyszOGQv-lTQ-33" target="gjkLMIGGu2WaTFzSfw1N-93">
          <mxGeometry relative="1" as="geometry" />
        </mxCell>
        <mxCell id="8yzNOGZebGLm4kdmdn6U-18" value="&lt;span style=&quot;font-size: 12px; background-color: rgb(236, 236, 236);&quot;&gt;&amp;lt;&amp;lt;apply&amp;gt;&amp;gt;&lt;/span&gt;" style="edgeLabel;html=1;align=center;verticalAlign=middle;resizable=0;points=[];" connectable="0" vertex="1" parent="8yzNOGZebGLm4kdmdn6U-5">
          <mxGeometry x="0.0176" y="1" relative="1" as="geometry">
            <mxPoint as="offset" />
          </mxGeometry>
        </mxCell>
        <mxCell id="pgveOLl8lyszOGQv-lTQ-41" value="&amp;lt;&amp;lt;apply&amp;gt;&amp;gt;" style="text;html=1;align=center;verticalAlign=middle;resizable=0;points=[];autosize=1;strokeColor=none;fillColor=none;" vertex="1" parent="pgveOLl8lyszOGQv-lTQ-9">
          <mxGeometry x="320" y="240" width="80" height="30" as="geometry" />
        </mxCell>
        <mxCell id="pgveOLl8lyszOGQv-lTQ-34" value="&amp;lt;&amp;lt;stereotype&amp;gt;&amp;gt;&lt;br&gt;Encuetsa" style="shape=rect;html=1;whiteSpace=wrap;align=center;" vertex="1" parent="pgveOLl8lyszOGQv-lTQ-9">
          <mxGeometry x="140" y="40" width="110" height="60" as="geometry" />
        </mxCell>
        <mxCell id="pgveOLl8lyszOGQv-lTQ-35" value="&amp;lt;&amp;lt;stereotype&amp;gt;&amp;gt;&lt;br&gt;GestionEvento" style="swimlane;fontStyle=0;align=center;verticalAlign=top;childLayout=stackLayout;horizontal=1;startSize=55;horizontalStack=0;resizeParent=1;resizeParentMax=0;resizeLast=0;collapsible=0;marginBottom=0;html=1;whiteSpace=wrap;" vertex="1" parent="pgveOLl8lyszOGQv-lTQ-9">
          <mxGeometry x="830" y="107" width="140" height="83" as="geometry" />
        </mxCell>
        <mxCell id="pgveOLl8lyszOGQv-lTQ-36" value="Aplica a : class" style="text;html=1;strokeColor=none;fillColor=none;align=center;verticalAlign=middle;spacingLeft=4;spacingRight=4;overflow=hidden;rotatable=0;points=[[0,0.5],[1,0.5]];portConstraint=eastwest;whiteSpace=wrap;" vertex="1" parent="pgveOLl8lyszOGQv-lTQ-35">
          <mxGeometry y="55" width="140" height="20" as="geometry" />
        </mxCell>
        <mxCell id="pgveOLl8lyszOGQv-lTQ-37" value="" style="line;strokeWidth=1;fillColor=none;align=left;verticalAlign=middle;spacingTop=-1;spacingLeft=3;spacingRight=3;rotatable=0;labelPosition=right;points=[];portConstraint=eastwest;" vertex="1" parent="pgveOLl8lyszOGQv-lTQ-35">
          <mxGeometry y="75" width="140" height="8" as="geometry" />
        </mxCell>
        <mxCell id="pgveOLl8lyszOGQv-lTQ-38" value="&amp;lt;&amp;lt;stereotype&amp;gt;&amp;gt;&lt;br&gt;ContenidoMultimedia" style="swimlane;fontStyle=0;align=center;verticalAlign=top;childLayout=stackLayout;horizontal=1;startSize=55;horizontalStack=0;resizeParent=1;resizeParentMax=0;resizeLast=0;collapsible=0;marginBottom=0;html=1;whiteSpace=wrap;" vertex="1" parent="pgveOLl8lyszOGQv-lTQ-9">
          <mxGeometry x="820" y="437" width="140" height="83" as="geometry" />
        </mxCell>
        <mxCell id="pgveOLl8lyszOGQv-lTQ-39" value="Aplica a : class" style="text;html=1;strokeColor=none;fillColor=none;align=center;verticalAlign=middle;spacingLeft=4;spacingRight=4;overflow=hidden;rotatable=0;points=[[0,0.5],[1,0.5]];portConstraint=eastwest;whiteSpace=wrap;" vertex="1" parent="pgveOLl8lyszOGQv-lTQ-38">
          <mxGeometry y="55" width="140" height="20" as="geometry" />
        </mxCell>
        <mxCell id="pgveOLl8lyszOGQv-lTQ-40" value="" style="line;strokeWidth=1;fillColor=none;align=left;verticalAlign=middle;spacingTop=-1;spacingLeft=3;spacingRight=3;rotatable=0;labelPosition=right;points=[];portConstraint=eastwest;" vertex="1" parent="pgveOLl8lyszOGQv-lTQ-38">
          <mxGeometry y="75" width="140" height="8" as="geometry" />
        </mxCell>
        <mxCell id="pgveOLl8lyszOGQv-lTQ-6" value="&amp;lt;&amp;lt;stereotype&amp;gt;&amp;gt;&lt;br&gt;InteracciónUsuario" style="swimlane;fontStyle=0;align=center;verticalAlign=top;childLayout=stackLayout;horizontal=1;startSize=55;horizontalStack=0;resizeParent=1;resizeParentMax=0;resizeLast=0;collapsible=0;marginBottom=0;html=1;whiteSpace=wrap;" vertex="1" parent="pgveOLl8lyszOGQv-lTQ-9">
          <mxGeometry x="830" y="638.5" width="140" height="83" as="geometry" />
        </mxCell>
        <mxCell id="pgveOLl8lyszOGQv-lTQ-7" value="Aplica a : class" style="text;html=1;strokeColor=none;fillColor=none;align=center;verticalAlign=middle;spacingLeft=4;spacingRight=4;overflow=hidden;rotatable=0;points=[[0,0.5],[1,0.5]];portConstraint=eastwest;whiteSpace=wrap;" vertex="1" parent="pgveOLl8lyszOGQv-lTQ-6">
          <mxGeometry y="55" width="140" height="20" as="geometry" />
        </mxCell>
        <mxCell id="pgveOLl8lyszOGQv-lTQ-8" value="" style="line;strokeWidth=1;fillColor=none;align=left;verticalAlign=middle;spacingTop=-1;spacingLeft=3;spacingRight=3;rotatable=0;labelPosition=right;points=[];portConstraint=eastwest;" vertex="1" parent="pgveOLl8lyszOGQv-lTQ-6">
          <mxGeometry y="75" width="140" height="8" as="geometry" />
        </mxCell>
        <mxCell id="gjkLMIGGu2WaTFzSfw1N-93" value="&amp;lt;&amp;lt;stereotype&amp;gt;&amp;gt;&lt;br&gt;Notificación" style="swimlane;fontStyle=0;align=center;verticalAlign=top;childLayout=stackLayout;horizontal=1;startSize=55;horizontalStack=0;resizeParent=1;resizeParentMax=0;resizeLast=0;collapsible=0;marginBottom=0;html=1;whiteSpace=wrap;" vertex="1" parent="pgveOLl8lyszOGQv-lTQ-9">
          <mxGeometry x="820" y="910" width="140" height="83" as="geometry" />
        </mxCell>
        <mxCell id="gjkLMIGGu2WaTFzSfw1N-94" value="Aplica a : class" style="text;html=1;strokeColor=none;fillColor=none;align=center;verticalAlign=middle;spacingLeft=4;spacingRight=4;overflow=hidden;rotatable=0;points=[[0,0.5],[1,0.5]];portConstraint=eastwest;whiteSpace=wrap;" vertex="1" parent="gjkLMIGGu2WaTFzSfw1N-93">
          <mxGeometry y="55" width="140" height="20" as="geometry" />
        </mxCell>
        <mxCell id="gjkLMIGGu2WaTFzSfw1N-98" value="" style="line;strokeWidth=1;fillColor=none;align=left;verticalAlign=middle;spacingTop=-1;spacingLeft=3;spacingRight=3;rotatable=0;labelPosition=right;points=[];portConstraint=eastwest;" vertex="1" parent="gjkLMIGGu2WaTFzSfw1N-93">
          <mxGeometry y="75" width="140" height="8" as="geometry" />
        </mxCell>
        <mxCell id="pgveOLl8lyszOGQv-lTQ-33" value="&amp;lt;&amp;lt;metaclass&amp;gt;&amp;gt;&lt;br&gt;Class" style="shape=rect;html=1;whiteSpace=wrap;align=center;" vertex="1" parent="pgveOLl8lyszOGQv-lTQ-9">
          <mxGeometry x="510" y="520" width="104.81291457286432" height="80" as="geometry" />
        </mxCell>
        <mxCell id="8yzNOGZebGLm4kdmdn6U-7" value="&amp;lt;&amp;lt;apply&amp;gt;&amp;gt;" style="text;html=1;align=center;verticalAlign=middle;resizable=0;points=[];autosize=1;strokeColor=none;fillColor=none;" vertex="1" parent="pgveOLl8lyszOGQv-lTQ-9">
          <mxGeometry x="305" y="390" width="80" height="30" as="geometry" />
        </mxCell>
        <mxCell id="8yzNOGZebGLm4kdmdn6U-10" value="&amp;lt;&amp;lt;apply&amp;gt;&amp;gt;" style="text;html=1;align=center;verticalAlign=middle;resizable=0;points=[];autosize=1;strokeColor=none;fillColor=none;" vertex="1" parent="pgveOLl8lyszOGQv-lTQ-9">
          <mxGeometry x="305" y="350" width="80" height="30" as="geometry" />
        </mxCell>
        <mxCell id="gjkLMIGGu2WaTFzSfw1N-7" value="&amp;lt;&amp;lt;profile&amp;gt;&amp;gt;SistemaEventos" style="shape=umlFrame;whiteSpace=wrap;html=1;pointerEvents=0;recursiveResize=0;container=1;collapsible=0;width=160;" vertex="1" parent="pgveOLl8lyszOGQv-lTQ-9">
          <mxGeometry x="-675" y="195" width="625" height="465" as="geometry" />
        </mxCell>
        <mxCell id="gjkLMIGGu2WaTFzSfw1N-13" value="&amp;lt;&amp;lt;stereotype&amp;gt;&amp;gt;&lt;br&gt;Usuario" style="shape=rect;html=1;whiteSpace=wrap;align=center;" vertex="1" parent="gjkLMIGGu2WaTFzSfw1N-7">
          <mxGeometry x="20" y="270" width="110" height="60" as="geometry" />
        </mxCell>
        <mxCell id="gjkLMIGGu2WaTFzSfw1N-14" value="&amp;lt;&amp;lt;stereotype&amp;gt;&amp;gt;&lt;br&gt;&lt;b&gt;Funcionalidad&lt;/b&gt;" style="swimlane;fontStyle=0;align=center;verticalAlign=top;childLayout=stackLayout;horizontal=1;startSize=50;horizontalStack=0;resizeParent=1;resizeParentMax=0;resizeLast=0;collapsible=0;marginBottom=0;html=1;whiteSpace=wrap;" vertex="1" parent="gjkLMIGGu2WaTFzSfw1N-7">
          <mxGeometry x="360" y="33.5" width="140" height="113" as="geometry" />
        </mxCell>
        <mxCell id="gjkLMIGGu2WaTFzSfw1N-16" value="tipo&lt;br&gt;restriccion" style="text;html=1;strokeColor=none;fillColor=none;align=left;verticalAlign=middle;spacingLeft=4;spacingRight=4;overflow=hidden;rotatable=0;points=[[0,0.5],[1,0.5]];portConstraint=eastwest;whiteSpace=wrap;" vertex="1" parent="gjkLMIGGu2WaTFzSfw1N-14">
          <mxGeometry y="50" width="140" height="55" as="geometry" />
        </mxCell>
        <mxCell id="gjkLMIGGu2WaTFzSfw1N-19" value="" style="line;strokeWidth=1;fillColor=none;align=left;verticalAlign=middle;spacingTop=-1;spacingLeft=3;spacingRight=3;rotatable=0;labelPosition=right;points=[];portConstraint=eastwest;" vertex="1" parent="gjkLMIGGu2WaTFzSfw1N-14">
          <mxGeometry y="105" width="140" height="8" as="geometry" />
        </mxCell>
        <mxCell id="gjkLMIGGu2WaTFzSfw1N-22" value="&amp;lt;&amp;lt;stereotype&amp;gt;&amp;gt;&lt;br&gt;Guest" style="shape=rect;html=1;whiteSpace=wrap;align=center;" vertex="1" parent="gjkLMIGGu2WaTFzSfw1N-7">
          <mxGeometry x="20" y="60" width="110" height="60" as="geometry" />
        </mxCell>
        <mxCell id="gjkLMIGGu2WaTFzSfw1N-23" value="&amp;lt;&amp;lt;stereotype&amp;gt;&amp;gt;&lt;br&gt;Cliente" style="shape=rect;html=1;whiteSpace=wrap;align=center;" vertex="1" parent="gjkLMIGGu2WaTFzSfw1N-7">
          <mxGeometry x="20" y="130" width="110" height="60" as="geometry" />
        </mxCell>
        <mxCell id="gjkLMIGGu2WaTFzSfw1N-24" value="&amp;lt;&amp;lt;stereotype&amp;gt;&amp;gt;&lt;br&gt;Admin" style="shape=rect;html=1;whiteSpace=wrap;align=center;" vertex="1" parent="gjkLMIGGu2WaTFzSfw1N-7">
          <mxGeometry x="19.999999999999943" y="200" width="110" height="60" as="geometry" />
        </mxCell>
        <mxCell id="gjkLMIGGu2WaTFzSfw1N-9" value="&amp;lt;&amp;lt;metaclass&amp;gt;&amp;gt;&lt;br&gt;UseCase" style="shape=rect;html=1;whiteSpace=wrap;align=center;" vertex="1" parent="gjkLMIGGu2WaTFzSfw1N-7">
          <mxGeometry x="190" y="203" width="104.81291457286432" height="80" as="geometry" />
        </mxCell>
        <mxCell id="gjkLMIGGu2WaTFzSfw1N-12" value="&amp;lt;&amp;lt;metaclass&amp;gt;&amp;gt;&lt;br&gt;Actor" style="shape=rect;html=1;whiteSpace=wrap;align=center;" vertex="1" parent="gjkLMIGGu2WaTFzSfw1N-7">
          <mxGeometry x="190" y="100" width="104.81291457286432" height="80" as="geometry" />
        </mxCell>
        <mxCell id="gjkLMIGGu2WaTFzSfw1N-37" value="&amp;lt;&amp;lt;stereotype&amp;gt;&amp;gt;&lt;br&gt;&lt;b&gt;Comun&lt;/b&gt;" style="swimlane;fontStyle=0;align=center;verticalAlign=top;childLayout=stackLayout;horizontal=1;startSize=50;horizontalStack=0;resizeParent=1;resizeParentMax=0;resizeLast=0;collapsible=0;marginBottom=0;html=1;whiteSpace=wrap;" vertex="1" parent="gjkLMIGGu2WaTFzSfw1N-7">
          <mxGeometry x="360" y="170" width="140" height="113" as="geometry" />
        </mxCell>
        <mxCell id="gjkLMIGGu2WaTFzSfw1N-38" value="disponiblepara = Cliente, Admin&amp;nbsp;" style="text;html=1;strokeColor=none;fillColor=none;align=left;verticalAlign=middle;spacingLeft=4;spacingRight=4;overflow=hidden;rotatable=0;points=[[0,0.5],[1,0.5]];portConstraint=eastwest;whiteSpace=wrap;" vertex="1" parent="gjkLMIGGu2WaTFzSfw1N-37">
          <mxGeometry y="50" width="140" height="55" as="geometry" />
        </mxCell>
        <mxCell id="gjkLMIGGu2WaTFzSfw1N-39" value="" style="line;strokeWidth=1;fillColor=none;align=left;verticalAlign=middle;spacingTop=-1;spacingLeft=3;spacingRight=3;rotatable=0;labelPosition=right;points=[];portConstraint=eastwest;" vertex="1" parent="gjkLMIGGu2WaTFzSfw1N-37">
          <mxGeometry y="105" width="140" height="8" as="geometry" />
        </mxCell>
        <mxCell id="-F7DVWzlhFf9bEwyfTAT-7" value="" style="endArrow=classic;html=1;rounded=0;entryX=0;entryY=0.5;entryDx=0;entryDy=0;exitX=1;exitY=0.5;exitDx=0;exitDy=0;" edge="1" parent="gjkLMIGGu2WaTFzSfw1N-7" source="gjkLMIGGu2WaTFzSfw1N-23" target="gjkLMIGGu2WaTFzSfw1N-12">
          <mxGeometry width="50" height="50" relative="1" as="geometry">
            <mxPoint x="140" y="180" as="sourcePoint" />
            <mxPoint x="190" y="130" as="targetPoint" />
          </mxGeometry>
        </mxCell>
        <mxCell id="-F7DVWzlhFf9bEwyfTAT-9" value="" style="endArrow=classic;html=1;rounded=0;entryX=0;entryY=0.25;entryDx=0;entryDy=0;" edge="1" parent="gjkLMIGGu2WaTFzSfw1N-7" target="gjkLMIGGu2WaTFzSfw1N-12">
          <mxGeometry width="50" height="50" relative="1" as="geometry">
            <mxPoint x="130" y="91" as="sourcePoint" />
            <mxPoint x="210" y="50" as="targetPoint" />
          </mxGeometry>
        </mxCell>
        <mxCell id="-F7DVWzlhFf9bEwyfTAT-11" value="" style="endArrow=classic;html=1;rounded=0;entryX=0;entryY=0.75;entryDx=0;entryDy=0;" edge="1" parent="gjkLMIGGu2WaTFzSfw1N-7" target="gjkLMIGGu2WaTFzSfw1N-12">
          <mxGeometry width="50" height="50" relative="1" as="geometry">
            <mxPoint x="130" y="227" as="sourcePoint" />
            <mxPoint x="210" y="186" as="targetPoint" />
          </mxGeometry>
        </mxCell>
        <mxCell id="-F7DVWzlhFf9bEwyfTAT-12" value="" style="endArrow=classic;html=1;rounded=0;entryX=1;entryY=0.25;entryDx=0;entryDy=0;" edge="1" parent="gjkLMIGGu2WaTFzSfw1N-7" target="gjkLMIGGu2WaTFzSfw1N-9">
          <mxGeometry width="50" height="50" relative="1" as="geometry">
            <mxPoint x="360" y="90.5" as="sourcePoint" />
            <mxPoint x="210" y="33.5" as="targetPoint" />
          </mxGeometry>
        </mxCell>
        <mxCell id="-F7DVWzlhFf9bEwyfTAT-15" value="" style="endArrow=classic;html=1;rounded=0;entryX=1;entryY=0.5;entryDx=0;entryDy=0;" edge="1" parent="gjkLMIGGu2WaTFzSfw1N-7" target="gjkLMIGGu2WaTFzSfw1N-9">
          <mxGeometry width="50" height="50" relative="1" as="geometry">
            <mxPoint x="360" y="210" as="sourcePoint" />
            <mxPoint x="295" y="339.5" as="targetPoint" />
          </mxGeometry>
        </mxCell>
        <mxCell id="gjkLMIGGu2WaTFzSfw1N-11" value="&amp;lt;&amp;lt;metaclass&amp;gt;&amp;gt;&lt;br&gt;Class" style="shape=rect;html=1;whiteSpace=wrap;align=center;" vertex="1" parent="gjkLMIGGu2WaTFzSfw1N-7">
          <mxGeometry x="190" y="320" width="104.81291457286432" height="80" as="geometry" />
        </mxCell>
        <mxCell id="gjkLMIGGu2WaTFzSfw1N-40" value="&amp;lt;&amp;lt;stereotype&amp;gt;&amp;gt;&lt;br&gt;&lt;b&gt;Gestion&lt;/b&gt;" style="swimlane;fontStyle=0;align=center;verticalAlign=top;childLayout=stackLayout;horizontal=1;startSize=50;horizontalStack=0;resizeParent=1;resizeParentMax=0;resizeLast=0;collapsible=0;marginBottom=0;html=1;whiteSpace=wrap;" vertex="1" parent="gjkLMIGGu2WaTFzSfw1N-7">
          <mxGeometry x="360" y="320" width="140" height="113" as="geometry" />
        </mxCell>
        <mxCell id="gjkLMIGGu2WaTFzSfw1N-41" value="modulo, requierepermisos = true" style="text;html=1;strokeColor=none;fillColor=none;align=left;verticalAlign=middle;spacingLeft=4;spacingRight=4;overflow=hidden;rotatable=0;points=[[0,0.5],[1,0.5]];portConstraint=eastwest;whiteSpace=wrap;" vertex="1" parent="gjkLMIGGu2WaTFzSfw1N-40">
          <mxGeometry y="50" width="140" height="55" as="geometry" />
        </mxCell>
        <mxCell id="gjkLMIGGu2WaTFzSfw1N-42" value="" style="line;strokeWidth=1;fillColor=none;align=left;verticalAlign=middle;spacingTop=-1;spacingLeft=3;spacingRight=3;rotatable=0;labelPosition=right;points=[];portConstraint=eastwest;" vertex="1" parent="gjkLMIGGu2WaTFzSfw1N-40">
          <mxGeometry y="105" width="140" height="8" as="geometry" />
        </mxCell>
        <mxCell id="-F7DVWzlhFf9bEwyfTAT-16" value="" style="endArrow=classic;html=1;rounded=0;entryX=1;entryY=0.5;entryDx=0;entryDy=0;" edge="1" parent="gjkLMIGGu2WaTFzSfw1N-7" target="gjkLMIGGu2WaTFzSfw1N-11">
          <mxGeometry width="50" height="50" relative="1" as="geometry">
            <mxPoint x="360" y="366.5" as="sourcePoint" />
            <mxPoint x="285" y="386.5" as="targetPoint" />
          </mxGeometry>
        </mxCell>
        <mxCell id="-F7DVWzlhFf9bEwyfTAT-18" value="" style="endArrow=classic;html=1;rounded=0;entryX=0;entryY=0.5;entryDx=0;entryDy=0;" edge="1" parent="gjkLMIGGu2WaTFzSfw1N-7" target="gjkLMIGGu2WaTFzSfw1N-11">
          <mxGeometry width="50" height="50" relative="1" as="geometry">
            <mxPoint x="130" y="307" as="sourcePoint" />
            <mxPoint x="190" y="240" as="targetPoint" />
          </mxGeometry>
        </mxCell>
      </root>
    </mxGraphModel>
  </diagram>
</mxfile>
